<?xml version="1.0" standalone="no"?>
<!DOCTYPE svg PUBLIC "-//W3C//DTD SVG 20010904//EN"
 "http://www.w3.org/TR/2001/REC-SVG-20010904/DTD/svg10.dtd">
<svg version="1.0" xmlns="http://www.w3.org/2000/svg"
 width="900.000000pt" height="900.000000pt" viewBox="0 0 900.000000 900.000000"
 preserveAspectRatio="xMidYMid meet">
<metadata>
Created by potrace 1.10, written by Peter Selinger 2001-2011
</metadata>
<g transform="translate(0.000000,900.000000) scale(0.100000,-0.100000)"
fill="#e24301" stroke="none">
<path d="M4385 8774 c-187 -49 -327 -189 -370 -370 -12 -48 -14 -216 -15 -904
0 -465 -4 -882 -10 -927 -8 -76 -27 -147 -49 -190 -5 -10 -18 -38 -30 -63 -31
-66 -118 -172 -186 -227 -84 -67 -240 -143 -293 -143 -17 0 -33 -4 -36 -9 -10
-16 -171 -24 -233 -12 -128 24 -158 32 -167 41 -6 6 -18 10 -28 10 -16 0 -67
25 -173 84 -11 6 -39 24 -62 39 -24 15 -45 27 -49 27 -3 0 -43 22 -88 49 -44
27 -97 58 -116 70 -19 12 -47 26 -62 32 -16 6 -28 15 -28 20 0 5 -5 9 -11 9
-6 0 -48 23 -94 50 -46 28 -88 50 -94 50 -6 0 -11 5 -11 10 0 6 -5 10 -11 10
-6 0 -59 29 -118 64 -170 102 -175 105 -197 115 -11 5 -50 27 -85 48 -35 22
-71 42 -79 46 -8 4 -28 16 -45 27 -16 11 -39 24 -51 29 -11 5 -51 28 -88 50
-36 23 -72 41 -79 41 -6 0 -25 7 -42 16 -23 13 -59 17 -150 18 -144 1 -200
-14 -302 -84 -58 -39 -84 -67 -141 -145 -4 -6 -14 -26 -24 -45 -67 -142 -66
-305 5 -460 21 -45 176 -210 198 -210 6 0 55 -27 109 -59 53 -32 107 -62 119
-66 11 -3 21 -11 21 -16 0 -5 5 -9 11 -9 6 0 45 -20 86 -45 40 -25 77 -45 82
-45 4 0 27 -13 49 -30 23 -16 45 -30 48 -30 3 0 43 -22 88 -49 139 -84 150
-90 172 -100 11 -5 50 -27 85 -48 35 -22 71 -42 79 -46 8 -4 29 -16 45 -27 17
-11 39 -24 51 -29 11 -5 51 -28 88 -50 36 -23 68 -41 71 -41 2 0 23 -12 47
-27 74 -48 82 -53 106 -63 38 -16 143 -100 192 -153 82 -89 146 -196 187 -312
14 -40 18 -82 18 -205 0 -166 -6 -194 -62 -310 -77 -157 -211 -295 -368 -380
-33 -18 -108 -61 -166 -96 -59 -35 -112 -64 -118 -64 -6 0 -11 -4 -11 -9 0 -5
-12 -14 -27 -20 -16 -6 -35 -15 -43 -21 -37 -24 -155 -93 -174 -101 -12 -5
-28 -13 -36 -19 -50 -34 -272 -160 -280 -160 -5 0 -10 -4 -10 -9 0 -5 -10 -13
-22 -17 -11 -3 -54 -26 -93 -50 -40 -24 -76 -44 -80 -44 -4 0 -27 -13 -52 -30
-24 -16 -46 -30 -48 -30 -2 0 -38 -20 -78 -45 -41 -25 -80 -45 -86 -45 -22 0
-177 -164 -198 -210 -39 -86 -53 -147 -53 -235 0 -175 78 -325 217 -416 109
-72 148 -84 294 -83 76 0 132 4 140 10 8 6 26 14 41 18 16 3 61 27 102 51 40
25 77 45 81 45 4 0 27 14 52 30 24 17 46 30 48 30 3 0 35 18 71 41 37 22 77
45 88 50 22 10 27 13 197 115 59 35 112 64 118 64 6 0 11 4 11 9 0 5 10 13 22
17 11 3 54 26 93 50 40 24 78 44 84 44 6 0 11 4 11 9 0 5 12 14 28 20 15 6 43
20 62 32 19 12 72 43 116 70 45 27 84 49 87 49 4 0 58 31 121 70 76 46 151 81
221 105 100 34 114 36 233 36 101 0 141 -4 192 -21 153 -48 286 -136 368 -243
91 -119 155 -275 172 -422 6 -54 10 -420 10 -922 0 -541 4 -851 11 -885 31
-160 177 -322 329 -368 25 -7 93 -15 151 -17 88 -4 118 -1 169 16 88 29 144
64 209 131 61 63 97 125 127 220 4 14 11 448 14 965 l6 940 23 70 c13 39 27
74 32 80 5 5 9 16 9 25 0 24 91 158 143 210 25 25 64 59 88 75 24 17 46 33 49
36 3 3 28 16 55 28 28 13 58 27 67 32 10 5 35 13 58 19 22 5 59 15 83 21 50
13 260 7 297 -8 14 -6 59 -21 100 -34 67 -20 105 -37 165 -77 11 -7 32 -17 48
-23 15 -6 27 -15 27 -20 0 -5 5 -9 11 -9 10 0 123 -63 179 -100 8 -6 24 -14
35 -19 18 -8 236 -136 275 -161 8 -6 24 -14 35 -19 12 -5 62 -34 111 -64 50
-30 101 -58 112 -61 12 -4 22 -12 22 -17 0 -5 5 -9 11 -9 6 0 45 -20 86 -45
40 -25 77 -45 82 -45 4 0 27 -13 49 -30 23 -17 45 -30 48 -30 3 0 43 -22 88
-49 197 -119 241 -135 376 -135 131 0 203 20 296 84 141 96 214 237 214 412 0
122 -28 209 -99 311 -35 49 -129 129 -168 141 -13 4 -23 12 -23 17 0 5 -5 9
-11 9 -6 0 -59 29 -118 64 -170 102 -175 105 -197 115 -11 5 -50 27 -85 48
-35 22 -71 42 -79 46 -8 4 -28 16 -45 27 -16 11 -39 24 -51 29 -11 5 -50 27
-86 49 -35 22 -74 43 -86 46 -12 4 -22 12 -22 17 0 5 -5 9 -11 9 -6 0 -59 29
-118 64 -170 102 -175 105 -197 115 -11 5 -50 27 -85 48 -35 22 -71 43 -79 47
-64 30 -166 105 -225 162 -105 104 -154 179 -205 314 -23 59 -25 79 -24 210 0
158 13 210 77 330 81 151 240 310 377 376 8 4 44 25 79 47 35 21 74 43 85 48
22 10 27 13 197 115 59 35 112 64 118 64 6 0 11 4 11 8 0 4 12 13 28 20 15 6
50 25 77 42 28 17 61 36 75 43 14 6 27 15 30 19 3 4 17 12 30 17 26 11 35 17
176 102 45 27 84 49 88 49 3 0 47 25 98 56 51 31 122 73 158 92 214 116 310
264 310 481 0 175 -73 315 -214 411 -95 65 -165 85 -296 84 -135 0 -180 -16
-376 -135 -45 -27 -84 -49 -87 -49 -4 0 -51 -27 -105 -60 -55 -33 -102 -60
-105 -60 -3 0 -62 -34 -130 -75 -69 -41 -130 -75 -136 -75 -6 0 -11 -4 -11 -9
0 -5 -10 -13 -22 -17 -11 -3 -54 -26 -93 -50 -40 -24 -78 -44 -84 -44 -6 0
-11 -4 -11 -9 0 -5 -10 -13 -22 -17 -12 -3 -51 -24 -86 -46 -36 -22 -75 -44
-86 -49 -12 -5 -28 -13 -36 -19 -134 -87 -336 -190 -375 -190 -9 0 -25 -5 -35
-10 -11 -6 -72 -17 -136 -25 -104 -13 -129 -13 -223 1 -58 9 -110 19 -116 24
-5 4 -23 10 -38 14 -16 4 -46 18 -68 31 -21 14 -43 25 -48 25 -11 0 -148 133
-183 178 -15 19 -41 64 -59 100 -17 37 -36 75 -40 84 -5 10 -13 34 -18 55 -6
21 -15 56 -22 78 -9 30 -14 276 -19 945 -3 498 -10 916 -14 930 -18 56 -62
149 -76 160 -3 3 -19 22 -34 43 -30 40 -135 114 -201 142 -40 17 -256 30 -300
19z"/>
</g>
</svg>
